<svg viewBox="0 0 600 600" xmlns="http://www.w3.org/2000/svg">
  <defs>
    <linearGradient id="packageBg" x1="0%" y1="0%" x2="100%" y2="100%">
      <stop offset="0%" style="stop-color:#1F1F1F;stop-opacity:1" />
      <stop offset="100%" style="stop-color:#0B0B0B;stop-opacity:1" />
    </linearGradient>
  </defs>
  
  <!-- Background -->
  <rect width="600" height="600" fill="url(#packageBg)"/>
  
  <!-- Main package -->
  <rect x="150" y="150" width="300" height="300" fill="#D4AF37" stroke="#999" stroke-width="2" rx="10"/>
  
  <!-- Package lines/seams -->
  <line x1="300" y1="150" x2="300" y2="450" stroke="#999" stroke-width="2"/>
  <line x1="150" y1="300" x2="450" y2="300" stroke="#999" stroke-width="2"/>
  
  <!-- Tape -->
  <rect x="280" y="140" width="40" height="320" fill="#666" opacity="0.6"/>
  <line x1="285" y1="150" x2="285" y2="440" stroke="#999" stroke-width="1"/>
  <line x1="315" y1="150" x2="315" y2="440" stroke="#999" stroke-width="1"/>
  
  <!-- Package label -->
  <rect x="200" y="250" width="200" height="100" fill="#fff" stroke="#D4AF37" stroke-width="2" rx="5"/>
  <text x="300" y="280" font-size="18" font-weight="bold" fill="#000" font-family="Arial, sans-serif" text-anchor="middle">
    TAD TRANSPORT
  </text>
  <text x="300" y="310" font-size="12" fill="#666" font-family="Arial, sans-serif" text-anchor="middle">
    Snabb & Pålitlig
  </text>
  <text x="300" y="330" font-size="11" fill="#999" font-family="Arial, sans-serif" text-anchor="middle">
    Leverans: I dag
  </text>
  
  <!-- Barcode -->
  <rect x="210" y="350" width="180" height="30" fill="#333" stroke="#D4AF37" stroke-width="1"/>
  <line x1="225" y1="350" x2="225" y2="380" stroke="#D4AF37" stroke-width="2"/>
  <line x1="245" y1="350" x2="245" y2="380" stroke="#D4AF37" stroke-width="1"/>
  <line x1="260" y1="350" x2="260" y2="380" stroke="#D4AF37" stroke-width="2"/>
  <line x1="280" y1="350" x2="280" y2="380" stroke="#D4AF37" stroke-width="1"/>
  <line x1="300" y1="350" x2="300" y2="380" stroke="#D4AF37" stroke-width="2"/>
  <line x1="320" y1="350" x2="320" y2="380" stroke="#D4AF37" stroke-width="1"/>
  <line x1="340" y1="350" x2="340" y2="380" stroke="#D4AF37" stroke-width="2"/>
  <line x1="360" y1="350" x2="360" y2="380" stroke="#D4AF37" stroke-width="1"/>
  <line x1="375" y1="350" x2="375" y2="380" stroke="#D4AF37" stroke-width="2"/>
  
  <!-- Checkmark -->
  <circle cx="120" cy="120" r="60" fill="#D4AF37" opacity="0.2" stroke="#D4AF37" stroke-width="3"/>
  <path d="M 100 130 L 130 160 L 160 110" stroke="#D4AF37" stroke-width="6" fill="none" stroke-linecap="round" stroke-linejoin="round"/>
  
  <!-- Shadow -->
  <ellipse cx="300" cy="480" rx="150" ry="40" fill="#000" opacity="0.2"/>
</svg>
